<svg id="Слой_1" data-name="Слой 1" xmlns="http://www.w3.org/2000/svg" viewBox="0 0 302.12 202.12"><defs><style>.cls-1{fill:#fff;}</style></defs><title>logo</title><path d="M388.28,430.29c.17,2.81,4.6,8.74,7.32,9.72,1.27.45,2.38,1.61,3.92,1.2a.46.46,0,0,1,.35,0c1.5,1.38,3.33.59,5,.78,1.51.18,5.13-2.34,6.18-3.17s2.14-1.33,2.71-2.58a28.5,28.5,0,0,1,1.47-2.49,2.75,2.75,0,0,1,.24-.52,12,12,0,0,0,1.66-3.91c0-1.68,0-3.36,0-5a2.69,2.69,0,0,0-.32-1.1,13,13,0,0,1-1.45-2.75c-.48-2.09-1.89-3.29-3.55-4.35-.16-.11-.39-.14-.5-.27a10.5,10.5,0,0,0-8.62-2.74c-2.89-.13-5.76-.13-8.06,2a33.68,33.68,0,0,0-2.53,2.54c-.83,1-1.46,2.12-2.32,3.06a5.85,5.85,0,0,0-1.64,4.15C388.14,426.7,388.17,428.5,388.28,430.29ZM405.88,400a24.93,24.93,0,0,1,10.76,3.86.58.58,0,0,0,.42.2c1.63,0,2.26,1.59,3.43,2.33a9.92,9.92,0,0,1,2,1.66c.74.8,1.36,1.71,2,2.57a25.82,25.82,0,0,0,2.85,3.72c.37,1.2.71,2.4,1.1,3.59a9.57,9.57,0,0,0,.56,1.22c.07.14.24.25.26.38.61,3.9,1.87,7.77,1,11.76a24.87,24.87,0,0,1-1.64,4c-.05.11-.13.24-.11.34.32,1.55-.65,2.78-1.14,4.08a4.65,4.65,0,0,1-.45.89c-.18.28-.39.56-.6.83-.43.54-.9,1.07-1.3,1.63a25.32,25.32,0,0,1-6.3,6.26c-1.16.85-2.26,1.79-3.45,2.59a7.18,7.18,0,0,1-2.36,1.11c-2.54.55-5,1.46-7.71,1.27-.4,0-.8,0-1.2,0v-.11a16.26,16.26,0,0,1-9-.89,15.08,15.08,0,0,1-4.77-1.9,16.54,16.54,0,0,1-6.71-4.83c-1.29-1.49-2.51-3.05-3.75-4.59l-.12-.19c-1-2-2-3.94-2.89-6-.24-1.62-.47-3.24-.68-4.87s-.38-3.26-.55-4.89a5.35,5.35,0,0,1,.63-3.32c.46-.78.27-2,.36-2.94.93-2.08,1.88-4.14,2.87-6.18a3.86,3.86,0,0,1,.23-.83A6.68,6.68,0,0,1,381,410.9c.9-.94,1.47-2.2,2.37-3.15s1.85-2.29,3.4-2.72a37.44,37.44,0,0,0,4-2.71,37,37,0,0,1,3.78-1.22,10.18,10.18,0,0,1,4.27-1.08,8.83,8.83,0,0,1,6.54-.35A1.41,1.41,0,0,0,405.88,400Z" transform="translate(-148.12 -323.7)"/><path class="cls-1" d="M415.33,420.48a13,13,0,0,0,1.45,2.75,2.69,2.69,0,0,1,.32,1.1c0,1.67,0,3.35,0,5a12,12,0,0,1-1.66,3.91,2.75,2.75,0,0,0-.24.52,28.5,28.5,0,0,0-1.47,2.49c-.57,1.25-1.74,1.81-2.71,2.58s-4.67,3.35-6.18,3.17c-1.68-.19-3.51.6-5-.78a.46.46,0,0,0-.35,0c-1.54.41-2.65-.75-3.92-1.2-2.72-1-7.15-6.91-7.32-9.72-.11-1.79-.14-3.59-.17-5.38a5.85,5.85,0,0,1,1.64-4.15c.86-.94,1.49-2.09,2.32-3.06a33.68,33.68,0,0,1,2.53-2.54c2.3-2.17,5.17-2.17,8.06-2a10.5,10.5,0,0,1,8.62,2.74c.11.13.34.16.5.27C413.44,417.19,414.85,418.39,415.33,420.48Z" transform="translate(-148.12 -323.7)"/><path d="M363.08,439.75a15,15,0,0,0,1.27,5.84c.24.53.73.94,1,1.46s.55,1.34.92,1.95c.84,1.39,1,3.12,2.41,4.24a10.07,10.07,0,0,1,1.49,2.16,17.86,17.86,0,0,0,2.86,3.8c1.61,1.37,2.81,3.21,4.34,4.69a49,49,0,0,0,4.26,3.45c1,.81,1.86,1.69,1.66,3.16-.15,1-.51,1.79-1.89,1.78-.72-.45-1.48-.84-2.15-1.34q-1.75-1.32-3.42-2.75a33.81,33.81,0,0,1-4.86-4.93c-.85-.91-1.79-1.74-2.61-2.68A35.14,35.14,0,0,1,365.5,457c-.91-1.37-1.62-2.88-2.44-4.31a29.49,29.49,0,0,1-2.53-3.83,1.23,1.23,0,0,1-.17-.32c-.38-1.37-.69-2.77-1.15-4.12-.84-2.44-2-3.83-2.08-6.33-.07-1.65-.48-3.28-.63-4.88a49.48,49.48,0,0,1-.07-11.6,16.09,16.09,0,0,1,2.44-10.52,16.89,16.89,0,0,0,1.26-4,5,5,0,0,1,1.62-3.13,7.32,7.32,0,0,0,1.27-2.15c.45-.92.78-1.91,1.25-2.82a67.17,67.17,0,0,1,5.05-6.49c1.09-1.24,2.35-2.32,3.52-3.49a33.66,33.66,0,0,1,2.4-2.52c.32-.27,6.49-5.6,7.78-3.7q.3,5.37-5.38,7.4a45.42,45.42,0,0,0-6.59,7.66c-1.08,1.61-2.46,3-3.61,4.6-.45.61-.33,1.46-1,2.15-1.63,1.71-3.13,6.95-3.27,9.28a13.83,13.83,0,0,1-1.72,5.57,2.31,2.31,0,0,0-.19,1c0,4.31,0,8.63,0,13a5.6,5.6,0,0,0,.66,1.75c0,.07.1.13.12.21A22.17,22.17,0,0,1,363.08,439.75Z" transform="translate(-148.12 -323.7)"/><path d="M379.58,412.78a3.86,3.86,0,0,0-.23.83A3.36,3.36,0,0,1,379.58,412.78Z" transform="translate(-148.12 -323.7)"/><path d="M376,430.94c.21,1.63.44,3.25.68,4.87C376.47,434.19,376.24,432.57,376,430.94Z" transform="translate(-148.12 -323.7)"/><path class="cls-1" d="M294.34,326c10-4.94,25.09-.67,35.28,2.08a37.72,37.72,0,0,1,4.63,1.3A64.76,64.76,0,0,1,347,337c1.1.82,2.21,1.65,3.23,2.58,1.2,1.11,2.3,2.32,3.43,3.5,1.51,1.57,3,3.11,4.49,4.73a16.56,16.56,0,0,1,1.61,2.49q-1.45,4.16-6.12,1.2c-.79-.42-1.87-.26-2.8-.45-7.63-1.61-1.91-.86-17.71-1-6.67-.05-15-1.77-21.51.74-.15.05-.28.18-.42.21-3.69.65-12.79,3.37-16.38,1.51a6.38,6.38,0,0,1-2.49-2.89q-2.35-4.89-4.27-10c-1.28-1.91-.49-3.94-.82-5.41a6.16,6.16,0,0,1,2.28-7.22C291.12,326.15,293,326.66,294.34,326Z" transform="translate(-148.12 -323.7)"/><path d="M332.4,437.32c.07,2.16-.3,4.47.35,6.44s2.23,3.4,3.55,5a5.33,5.33,0,0,0,2.2,1.37c1.36.49,2.81.74,4.18,1.2s1.59,1.78.81,3-2.06,1.58-3.42,1.87a11.35,11.35,0,0,0-3.49,1.24c-.62.37-.87,1.34-1.34,2s-1,1.2-1.47,1.86a8.38,8.38,0,0,0-1.48,2.81,20.64,20.64,0,0,0,0,4.78,3.6,3.6,0,0,0,.86,1.72,33.79,33.79,0,0,0,3.48,4.22c.79.73,2.15.82,3,1.47a8.44,8.44,0,0,0,3.17,1c1,.29,1.68,2.16,1.24,3.19-.12.28-.48.47-.76.67a8.63,8.63,0,0,1-1.16.72,1.08,1.08,0,0,1-.73.05,11.37,11.37,0,0,1-1.79-.68c-1.47-.73-2.95-1.44-4.37-2.27-.85-.5-1.55-1.24-2.37-1.8a3.73,3.73,0,0,1-1.77-2.21c-.12-.47-.6-.85-.93-1.26-2.34-3-2.44-6.48-1.94-10A11.24,11.24,0,0,1,329.8,460a30.92,30.92,0,0,1,2.43-3.51,5.94,5.94,0,0,1,1.29-1.15c1.81-1.3,2-2.49.46-4s-3.09-2.77-4.42-4.33a6.22,6.22,0,0,1-1.18-3c-.25-1.53-.17-3.11-.27-4.66A14.06,14.06,0,0,1,334,429.18c2.22-2.13-5.42-10.35-5.68-12.88a22,22,0,0,1,.06-5.73,8.16,8.16,0,0,1,2.49-4.54c1.37-1.32,2.69-2.71,3.93-4.15.94-1.1,0-3.33-1.46-3.66a11.44,11.44,0,0,1-4.67-6.1c-2.86-4.88,1.18-10.59,3.78-14.31a8.05,8.05,0,0,1,1.57-1.57,24.32,24.32,0,0,0,3.67-2.87q4.37-3,6.5,1.93a3.24,3.24,0,0,1-1.31,1.78,29.4,29.4,0,0,1-3.43,1.16,11.94,11.94,0,0,0-5.38,4.58,8.4,8.4,0,0,0-1.87,5.61c-.2,2.26.91,4,2.38,5.5a10.43,10.43,0,0,0,5.49,4.2,4.31,4.31,0,0,1,3.7,1.34c.58.5.43,2.28.07,3.3a14.82,14.82,0,0,1-6.91,2.42,2.7,2.7,0,0,0-.54.4c-.86,1.09-1.65,2.26-2.59,3.28a8.19,8.19,0,0,0-1.58,6.64c-.14,2.08,1.08,3.4,2.44,4.68a12.6,12.6,0,0,0,4.41,4c2-.16,3.33.46,4.13,1.84.27.54.51,1.09.84,1.82a5.58,5.58,0,0,1-2.32,1.46,11,11,0,0,0-6.6,4.54c-.71,1.12-1.71,2.18-2.52,3.33C332.51,437.21,332.39,437.26,332.4,437.32Z" transform="translate(-148.12 -323.7)"/><path class="cls-1" d="M302.72,502c2.63.53,5.29.88,7.91,1.37,4.31.81,8.67.38,12.9,1,2.9.46,5.77.4,8.64.66a4.09,4.09,0,0,0,2.17-.67c1.66-1,4.4.12,4.54,2a11.38,11.38,0,0,1-5.52,6.22,29.77,29.77,0,0,1-5.53,4.61,12.59,12.59,0,0,0-1.75,1.45.87.87,0,0,1-.37.25,40.73,40.73,0,0,1-9.56,4.21,11.69,11.69,0,0,1-5.23,1.83c-2,.06-4.08.08-6.11.16a14.6,14.6,0,0,1-7.37.26,2.33,2.33,0,0,0-1-.27c-3.13-.58-8.47-1-10.9-3.4a5.1,5.1,0,0,1-.63-5.83,5.05,5.05,0,0,0,.24-1.53c.18-1.59.05-3.17.82-4.75.53-1.06.23-2.51.38-3.78a8.56,8.56,0,0,1,3-5.6,15.46,15.46,0,0,1,3.9-.25v0c1,0,2,.07,3,.17a5.24,5.24,0,0,1,1.14.46,6.41,6.41,0,0,0,1.09.38c1.38.26,3-.37,4.11,1C302.63,502,302.68,502,302.72,502Z" transform="translate(-148.12 -323.7)"/><path d="M309.36,402.27c.82,1.9,1.55,4,3.52,5.18.63.39.95,1.27,1.44,1.91a5.22,5.22,0,0,0,.79.77c1.27,1.05,2.83.88,4.33,1.1,4,.6,1.1,4.26.3,5.06-1.11,1.11-2.52.61-3.77.94a4.93,4.93,0,0,0-2.89,3.15,18.93,18.93,0,0,1-2.25,2.71c-1.36,1.26-1.53,3.51-1,5.32A21.16,21.16,0,0,0,312,433c.5.85.88,1.77,1.32,2.65a4.56,4.56,0,0,0,3.46,1.5c1.41.61,3,.93,4,2.18.58,1.26.17,2.15-1.22,2.67a7.23,7.23,0,0,0-6.51,3.36c-.05.25-.34.46-.52.69a9.72,9.72,0,0,0-3.49,7.22c0,1.6.94,2.74,1.68,4a13.27,13.27,0,0,0,6.73,6.1A5.05,5.05,0,0,1,320.7,465a2.12,2.12,0,0,1-1.15,3.25,29.75,29.75,0,0,0-4.42,1.1,2.86,2.86,0,0,0-2,1.89,5.16,5.16,0,0,1-.93,1.38c-.85,1.23-1.72,2.44-2.53,3.7a3.64,3.64,0,0,0-.52,1.42,7.49,7.49,0,0,0,2,6.6c1.18,1.2,2.25,2.53,3.53,3.61a13.48,13.48,0,0,0,2.77,1.27q3.13.46,2.68,3.29a3.68,3.68,0,0,1-4,.61,10.48,10.48,0,0,1-2.59-1.2,18.29,18.29,0,0,1-2.58-1.66,13.64,13.64,0,0,1-2.63-2.57,24.07,24.07,0,0,1-2.77-4.78,12.89,12.89,0,0,1-.38-3.67h.17a10.45,10.45,0,0,1,2.65-8.22,24.79,24.79,0,0,0,3.46-3.56c1-1.22.73-2.29-.51-3.29a19.84,19.84,0,0,1-3.5-3.21c-.71-.91-.74-2.32-1.34-3.35-1.32-2.28-1-4.76-.7-7.08a8.53,8.53,0,0,1,2.4-5.45q4.53-2.64,3-6.91c-1-1.08-1.78-2.33-2.67-3.49-2.49-3.27-3.72-9.1-1.11-12.69a.72.72,0,0,0,.15-.32,7.34,7.34,0,0,1,2.12-3.95,1.78,1.78,0,0,1,.83-.52c6.41-1.66-2.08-7.87-2.5-8.36a14.75,14.75,0,0,1-1.44-2.83,13.25,13.25,0,0,1,.85-12,10.81,10.81,0,0,1,3.74-4.63,3.41,3.41,0,0,0-.12-4.09,24.61,24.61,0,0,1-3.19-3.43,10.77,10.77,0,0,1-2-4.21,26.67,26.67,0,0,1,0-6.68c.1-1,1-1.86,1.47-2.79a9.35,9.35,0,0,0,2.45-3.54c.76-1.65,9.51-6.65,10.76-3.9a2.81,2.81,0,0,1-1.47,3.41,51.62,51.62,0,0,0-4.64,2.5c-1.74.88-2.43,2.52-3.42,3.81q-3.24,5.61,1.23,9.81a25,25,0,0,0,1.48,2.3c2,2.5,6.59,1.46,7.78,4.4.41,1-.37,1.78-1.11,2.26a10.41,10.41,0,0,1-2.5.94,13.34,13.34,0,0,0-6.93,6.09C309.53,398.06,308.45,400.14,309.36,402.27Z" transform="translate(-148.12 -323.7)"/><path d="M283.26,464.44c-.05-3.07,2-5.09,3.79-7.63a12.45,12.45,0,0,1,2-2c.66-.6.13-3.28-.51-3.93-1.36-1.37-2.66-2.81-4-4.22a.71.71,0,0,1-.17-.36c-.47-2.83-1.91-5.65-1-8.5.53-1.72.6-3.8,2.31-5.11a9.75,9.75,0,0,0,1.51-2,14.3,14.3,0,0,1,1.15-1.51q1.68-5.91-3.88-9.44c-.62-1.15-1.53-2.45-1.24-4a18.29,18.29,0,0,0,0-2.87c0-.78-.14-1.57.65-2.18.25-.19.2-.82.22-1.25q2.65-4.38,5.21-8.81a4.32,4.32,0,0,0-1.41-2.49c-2.67-3-5.66-4.31-4.67-9.35a7.78,7.78,0,0,1,.66-4.2c.11-.07.15-.29.16-.44.17-2.25,1.76-3.77,2.75-5.62a37.29,37.29,0,0,1,7.59-6.07,6.87,6.87,0,0,1,2.44-.34c1.06-.11,1.14.77,1.59,1.42.56.81.2,1.31-.06,2a3.09,3.09,0,0,1-1.52,1.64c-4.63,2.25-12,7.44-9,14.11,1,2.11,2.82,3.37,4.14,5.1a3.92,3.92,0,0,0,3.48,1.72,2.93,2.93,0,0,1,3,1.94c.14,2.62-1.07,4-3.64,4.09-2.91.62-4.83,2.69-6.37,5.21a8.53,8.53,0,0,0-1.38,5.38,5.45,5.45,0,0,0,1.78,3.65,8.69,8.69,0,0,1,1.28,2c.45.75.87,1.51,1.32,2.26a.59.59,0,0,0,.29.25c1,.41,2,.81,2.94,1.21,2.29.15,3.49,1.34,3.6,3.55,0,.75-.41,1.13-1.23,1.47-2,.81-4.31,1-5.66,3a28.39,28.39,0,0,1-3.66,5c-.1.16-.32.24-.41.4-.9,1.71,0,5.33,1.39,6.67a11,11,0,0,1,1.51,2.24c1,1.59,1.63,3.49,4,3.81,1.14.16,2.19,1,3.28,1.56,3.73,1.89-1.43,4-2.27,4.27a5.37,5.37,0,0,0-5,3.47c-.92,1.52-2.14,3-2.63,4.62a7.8,7.8,0,0,0,0,4.85,14.61,14.61,0,0,0,5.8,6.18c.74.46,7.88,3,5.11,5.77-.51.51-.88,1.39-1.78,1a42.93,42.93,0,0,1-4.46-2.07,12,12,0,0,1-2.61-1.9c-1.78-1.73-3.49-3.55-5.19-5.36-.19-.2-.16-.61-.27-.91a15,15,0,0,1-.9-5.58h0C283.27,465.48,283.27,465,283.26,464.44Z" transform="translate(-148.12 -323.7)"/><path d="M267.08,415.29c.55-2.48.28-3.33-2.27-4.46a3.19,3.19,0,0,1-1.36-1.34,9,9,0,0,1-2.76-8.71,37.94,37.94,0,0,1,2.17-7.17c.83-1.86,2.31-3,3.67-4.25,0,0,6.33-5.38,7.89-4.21.72.54,1.82.75,1.81,2,0,1.42-.48,2.34-1.58,2.74-1.32.47-2.48,1.34-3.73,1.83-2.31.91-2.76,3.29-4.4,4.67a10.09,10.09,0,0,0-1.3,3.69c0,.71,0,1.43,0,2.14,0,1.52.86,2.61,1.7,3.75s1.57,2.25,2.35,3.39c.11.16.15.44.28.49a29.71,29.71,0,0,0,3.37,1c1,.2,2.93,1.58,3.21,2.54.34,1.15-.5,1.81-1.12,2.5a3.11,3.11,0,0,1-2.75,1c-1.46-.19-2.27.65-3.05,1.68-1.17,1.53-2.45,3-3.63,4.48a2,2,0,0,0-.34,1.11,27.83,27.83,0,0,0,.08,4.66,25.53,25.53,0,0,0,3.1,5.42,14.56,14.56,0,0,0,2.93,2.62q3.94.31,4.76,3.49a9.39,9.39,0,0,1-6.42,3.76,4.89,4.89,0,0,0-.64.34c-2.63,1.63-3.36,5.34-3.74,8.21,0,.09,0,.17,0,.25,0,.34-.08.67-.12,1a5,5,0,0,0,1.2,3.78,37.74,37.74,0,0,0,3,3.54,15.93,15.93,0,0,0,5.88,2.74,1.54,1.54,0,0,1,.86.82,2.19,2.19,0,0,1-1.05,3.24c-1.84,0-3.75.21-5.35-1.06a23.74,23.74,0,0,0-4.15-3.17,17.13,17.13,0,0,1-2.3-2.91,6.92,6.92,0,0,1-2-4.22c0-1.24,0-2.48,0-3.72h-.07c0-.8,0-1.6,0-2.4a14.27,14.27,0,0,1,5.75-8.86c2.19-2.1-5-9.22-5.61-11.15a27,27,0,0,1-.68-3.94,1.26,1.26,0,0,1,.1-.45c.15-.68.34-1.36.45-2.05a10.33,10.33,0,0,1,3.64-6.4C265.62,417,266.87,416.24,267.08,415.29Z" transform="translate(-148.12 -323.7)"/><path d="M265.24,453c0,.34-.08.66-.12,1C265.16,453.66,265.2,453.33,265.24,453Z" transform="translate(-148.12 -323.7)"/><path d="M247.26,423.18c1.08.41,2.07,1.07,3.11,1.59s2,.93,2.94,1.41c2.74,1.34-8.42,9.18-7.27,6.78-.61,1.26-2,2.17-2.51,3.45q-2.7,5.37,1.55,9.79c1.12,1,2.09,2.23,3.25,3.21a25.93,25.93,0,0,1,5.58,3.88.61.61,0,0,1,.1.42,3.67,3.67,0,0,1-4.73,1.42c-.5-.09-.93-.6-1.41-.89a22.35,22.35,0,0,1-6.36-5.13,10,10,0,0,1-2.43-4.62c-.19-1.38-.61-2.73-1-4.15,1.48-6.92,1.1-5.8,5.51-11.06.43-.52,1.25-1.08,1.21-1.57a10,10,0,0,0-4.29-5.85,17.82,17.82,0,0,1-2.18-10.25,6.12,6.12,0,0,1,2.34-4.64,1,1,0,0,0,.39-.54,26,26,0,0,1,5-5.35,7.42,7.42,0,0,1,6-2c.83.05,1.07.63,1.57,1,.93.7,0,1-.17,1.49a3.23,3.23,0,0,1-2.5,2.6c-1.95.39-3.78.86-4.89,2.82-.7,1.24-1.88,2.24-2.53,3.5-2.35,4.55.25,6.46,1.73,10.56A3.27,3.27,0,0,0,247.26,423.18Z" transform="translate(-148.12 -323.7)"/><path class="cls-1" d="M379.73,442c1.24,1.54,2.46,3.1,3.75,4.59a16.54,16.54,0,0,0,6.71,4.83,15.08,15.08,0,0,0,4.77,1.9,16.26,16.26,0,0,0,9,.89v.11c.4,0,.8,0,1.2,0,2.67.19,5.17-.72,7.71-1.27a7.18,7.18,0,0,0,2.36-1.11c1.19-.8,2.29-1.74,3.45-2.59a25.32,25.32,0,0,0,6.3-6.26c.4-.56.87-1.09,1.3-1.63a9.14,9.14,0,0,0,.6-.83,4.65,4.65,0,0,0,.45-.89c.49-1.3,1.46-2.53,1.14-4.08,0-.1.06-.23.11-.34a24.87,24.87,0,0,0,1.64-4c.9-4-.36-7.86-1-11.76,0-.13-.19-.24-.26-.38a9.57,9.57,0,0,1-.56-1.22c-.39-1.19-.73-2.39-1.1-3.59a25.82,25.82,0,0,1-2.85-3.72c-.67-.86-1.29-1.77-2-2.57a9.92,9.92,0,0,0-2-1.66c-1.17-.74-1.8-2.28-3.43-2.33a.58.58,0,0,1-.42-.2A24.93,24.93,0,0,0,405.88,400a1.41,1.41,0,0,1-.48-.31,8.83,8.83,0,0,0-6.54.35,10.18,10.18,0,0,0-4.27,1.08,37,37,0,0,0-3.78,1.22,37.44,37.44,0,0,1-4,2.71c-1.55.43-2.41,1.68-3.4,2.72S381.94,410,381,410.9a6.68,6.68,0,0,0-1.46,1.88,3.36,3.36,0,0,0-.23.83c-1,2-1.94,4.1-2.87,6.18-.09,1,.1,2.16-.36,2.94a5.35,5.35,0,0,0-.63,3.32c.17,1.63.35,3.27.55,4.89s.43,3.25.68,4.87c.87,2,1.92,4,2.89,6Zm-22.6-3.88c.11,2.5,1.24,3.89,2.08,6.33.46,1.35.77,2.75,1.15,4.12a1.23,1.23,0,0,0,.17.32,29.49,29.49,0,0,0,2.53,3.83c.82,1.43,1.53,2.94,2.44,4.31a35.14,35.14,0,0,0,2.87,3.58c.82.94,1.76,1.77,2.61,2.68a33.81,33.81,0,0,0,4.86,4.93q1.67,1.43,3.42,2.75c.67.5,1.43.89,2.15,1.34,1.38,0,1.74-.74,1.89-1.78.2-1.47-.62-2.35-1.66-3.16a49,49,0,0,1-4.26-3.45c-1.53-1.48-2.73-3.32-4.34-4.69a17.86,17.86,0,0,1-2.86-3.8,10.07,10.07,0,0,0-1.49-2.16c-1.4-1.12-1.57-2.85-2.41-4.24-.37-.61-.57-1.32-.92-1.95s-.77-.93-1-1.46a15,15,0,0,1-1.27-5.84,22.17,22.17,0,0,0-1-4.32c0-.08-.09-.14-.12-.21a5.6,5.6,0,0,1-.66-1.75c-.06-4.32,0-8.64,0-13a2.31,2.31,0,0,1,.19-1,13.83,13.83,0,0,0,1.72-5.57c.14-2.33,1.64-7.57,3.27-9.28.66-.69.54-1.54,1-2.15,1.15-1.57,2.53-3,3.61-4.6a45.42,45.42,0,0,1,6.59-7.66q5.67-2,5.38-7.4c-1.29-1.9-7.46,3.43-7.78,3.7a33.66,33.66,0,0,0-2.4,2.52c-1.17,1.17-2.43,2.25-3.52,3.49a67.17,67.17,0,0,0-5.05,6.49c-.47.91-.8,1.9-1.25,2.82a7.32,7.32,0,0,1-1.27,2.15,5,5,0,0,0-1.62,3.13,16.89,16.89,0,0,1-1.26,4,16.09,16.09,0,0,0-2.44,10.52,49.48,49.48,0,0,0,.07,11.6C356.65,434.81,357.06,436.44,357.13,438.09Zm-118,6.4a10,10,0,0,0,2.43,4.62,22.35,22.35,0,0,0,6.36,5.13c.48.29.91.8,1.41.89a3.67,3.67,0,0,0,4.73-1.42.61.61,0,0,0-.1-.42,25.93,25.93,0,0,0-5.58-3.88c-1.16-1-2.13-2.18-3.25-3.21q-4.25-4.41-1.55-9.79c.53-1.28,1.9-2.19,2.51-3.45-1.15,2.4,10-5.44,7.27-6.78-1-.48-2-.93-2.94-1.41s-2-1.18-3.11-1.59a3.27,3.27,0,0,1-2-2.15c-1.48-4.1-4.08-6-1.73-10.56.65-1.26,1.83-2.26,2.53-3.5,1.11-2,2.94-2.43,4.89-2.82a3.23,3.23,0,0,0,2.5-2.6c.2-.52,1.1-.79.17-1.49-.5-.38-.74-1-1.57-1a7.42,7.42,0,0,0-6,2,26,26,0,0,0-5,5.35,1,1,0,0,1-.39.54,6.12,6.12,0,0,0-2.34,4.64,17.82,17.82,0,0,0,2.18,10.25,10,10,0,0,1,4.29,5.85c0,.49-.78,1.05-1.21,1.57-4.41,5.26-4,4.14-5.51,11.06C238.47,441.76,238.89,443.11,239.08,444.49Zm44.18-31.72a18.29,18.29,0,0,1,0,2.87c-.29,1.59.62,2.89,1.24,4q5.57,3.54,3.88,9.44a14.3,14.3,0,0,0-1.15,1.51,9.75,9.75,0,0,1-1.51,2c-1.71,1.31-1.78,3.39-2.31,5.11-.87,2.85.57,5.67,1,8.5a.71.71,0,0,0,.17.36c1.31,1.41,2.61,2.85,4,4.22.64.65,1.17,3.33.51,3.93a12.45,12.45,0,0,0-2,2c-1.75,2.54-3.84,4.56-3.79,7.63,0,.52,0,1,0,1.56h0a15,15,0,0,0,.9,5.58c.11.3.08.71.27.91,1.7,1.81,3.41,3.63,5.19,5.36a12,12,0,0,0,2.61,1.9,42.93,42.93,0,0,0,4.46,2.07c.9.37,1.27-.51,1.78-1,2.77-2.77-4.37-5.31-5.11-5.77a14.61,14.61,0,0,1-5.8-6.18,7.8,7.8,0,0,1,0-4.85c.49-1.65,1.71-3.1,2.63-4.62a5.37,5.37,0,0,1,5-3.47c.84-.28,6-2.38,2.27-4.27-1.09-.54-2.14-1.4-3.28-1.56-2.37-.32-3-2.22-4-3.81a11,11,0,0,0-1.51-2.24c-1.44-1.34-2.29-5-1.39-6.67.09-.16.31-.24.41-.4a28.39,28.39,0,0,0,3.66-5c1.35-2,3.69-2.17,5.66-3,.82-.34,1.2-.72,1.23-1.47-.11-2.21-1.31-3.4-3.6-3.55-1-.4-2-.8-2.94-1.21a.59.59,0,0,1-.29-.25c-.45-.75-.87-1.51-1.32-2.26a8.69,8.69,0,0,0-1.28-2,5.45,5.45,0,0,1-1.78-3.65,8.53,8.53,0,0,1,1.38-5.38c1.54-2.52,3.46-4.59,6.37-5.21,2.57-.1,3.78-1.47,3.64-4.09a2.93,2.93,0,0,0-3-1.94,3.92,3.92,0,0,1-3.48-1.72c-1.32-1.73-3.16-3-4.14-5.1-3.08-6.67,4.33-11.86,9-14.11a3.09,3.09,0,0,0,1.52-1.64c.26-.66.62-1.16.06-2-.45-.65-.53-1.53-1.59-1.42a6.87,6.87,0,0,0-2.44.34,37.29,37.29,0,0,0-7.59,6.07c-1,1.85-2.58,3.37-2.75,5.62,0,.15-.05.37-.16.44a7.78,7.78,0,0,0-.66,4.2c-1,5,2,6.33,4.67,9.35a4.32,4.32,0,0,1,1.41,2.49q-2.56,4.43-5.21,8.81c0,.43,0,1.06-.22,1.25C283.12,411.2,283.28,412,283.26,412.77Zm-18.45-1.94c2.55,1.13,2.82,2,2.27,4.46-.21.95-1.46,1.72-2.33,2.46a10.33,10.33,0,0,0-3.64,6.4c-.11.69-.3,1.37-.45,2.05a1.26,1.26,0,0,0-.1.45,27,27,0,0,0,.68,3.94c.59,1.93,7.8,9.05,5.61,11.15a14.27,14.27,0,0,0-5.75,8.86c0,.8,0,1.6,0,2.4h.07c0,1.24,0,2.48,0,3.72a6.92,6.92,0,0,0,2,4.22,17.13,17.13,0,0,0,2.3,2.91,23.74,23.74,0,0,1,4.15,3.17c1.6,1.27,3.51,1,5.35,1.06a2.19,2.19,0,0,0,1.05-3.24,1.54,1.54,0,0,0-.86-.82,15.93,15.93,0,0,1-5.88-2.74,37.74,37.74,0,0,1-3-3.54,5,5,0,0,1-1.2-3.78c0-.31.08-.63.12-1,0-.08,0-.16,0-.25.42-2.8,1.31-6.61,3.74-8.21a4.89,4.89,0,0,1,.64-.34,9.39,9.39,0,0,0,6.42-3.76q-.81-3.18-4.76-3.49a14.56,14.56,0,0,1-2.93-2.62,25.53,25.53,0,0,1-3.1-5.42,27.83,27.83,0,0,1-.08-4.66,2,2,0,0,1,.34-1.11c1.18-1.51,2.46-2.95,3.63-4.48.78-1,1.59-1.87,3.05-1.68a3.11,3.11,0,0,0,2.75-1c.62-.69,1.46-1.35,1.12-2.5-.28-1-2.21-2.34-3.21-2.54a29.71,29.71,0,0,1-3.37-1c-.13-.05-.17-.33-.28-.49-.78-1.14-1.54-2.28-2.35-3.39s-1.73-2.23-1.7-3.75c0-.71,0-1.43,0-2.14a10.09,10.09,0,0,1,1.3-3.69c1.64-1.38,2.09-3.76,4.4-4.67,1.25-.49,2.41-1.36,3.73-1.83,1.1-.4,1.58-1.32,1.58-2.74,0-1.26-1.09-1.47-1.81-2-1.56-1.17-7.89,4.23-7.89,4.21-1.36,1.28-2.84,2.39-3.67,4.25a37.94,37.94,0,0,0-2.17,7.17,9,9,0,0,0,2.76,8.71A3.19,3.19,0,0,0,264.81,410.83Zm69.94-8.95c-1.24,1.44-2.56,2.83-3.93,4.15a8.16,8.16,0,0,0-2.49,4.54,22,22,0,0,0-.06,5.73c.26,2.53,7.9,10.75,5.68,12.88a14.06,14.06,0,0,0-5.84,10.13c.1,1.55,0,3.13.27,4.66a6.22,6.22,0,0,0,1.18,3c1.33,1.56,2.95,2.87,4.42,4.33s1.35,2.71-.46,4a5.94,5.94,0,0,0-1.29,1.15A30.92,30.92,0,0,0,329.8,460a11.24,11.24,0,0,0-1.56,3.69c-.5,3.51-.4,7,1.94,10,.33.41.81.79.93,1.26a3.73,3.73,0,0,0,1.77,2.21c.82.56,1.52,1.3,2.37,1.8,1.42.83,2.9,1.54,4.37,2.27a11.37,11.37,0,0,0,1.79.68,1.08,1.08,0,0,0,.73-.05,8.63,8.63,0,0,0,1.16-.72c.28-.2.64-.39.76-.67.44-1-.22-2.9-1.24-3.19a8.44,8.44,0,0,1-3.17-1c-.9-.65-2.26-.74-3-1.47a33.79,33.79,0,0,1-3.48-4.22,3.6,3.6,0,0,1-.86-1.72,20.64,20.64,0,0,1,0-4.78,8.38,8.38,0,0,1,1.48-2.81c.43-.66,1-1.21,1.47-1.86s.72-1.63,1.34-2a11.35,11.35,0,0,1,3.49-1.24c1.36-.29,2.57-.54,3.42-1.87s.58-2.53-.81-3-2.82-.71-4.18-1.2a5.33,5.33,0,0,1-2.2-1.37c-1.32-1.56-2.94-3.11-3.55-5s-.28-4.28-.35-6.44c0-.06.11-.11.15-.17.81-1.15,1.81-2.21,2.52-3.33a11,11,0,0,1,6.6-4.54,5.58,5.58,0,0,0,2.32-1.46c-.33-.73-.57-1.28-.84-1.82-.8-1.38-2.17-2-4.13-1.84a12.6,12.6,0,0,1-4.41-4c-1.36-1.28-2.58-2.6-2.44-4.68a8.19,8.19,0,0,1,1.58-6.64c.94-1,1.73-2.19,2.59-3.28a2.7,2.7,0,0,1,.54-.4,14.82,14.82,0,0,0,6.91-2.42c.36-1,.51-2.8-.07-3.3a4.31,4.31,0,0,0-3.7-1.34,10.43,10.43,0,0,1-5.49-4.2c-1.47-1.54-2.58-3.24-2.38-5.5a8.4,8.4,0,0,1,1.87-5.61,11.94,11.94,0,0,1,5.38-4.58,29.4,29.4,0,0,0,3.43-1.16,3.24,3.24,0,0,0,1.31-1.78q-2.14-4.95-6.5-1.93a24.32,24.32,0,0,1-3.67,2.87,8.05,8.05,0,0,0-1.57,1.57c-2.6,3.72-6.64,9.43-3.78,14.31a11.44,11.44,0,0,0,4.67,6.1C334.78,398.55,335.69,400.78,334.75,401.88Zm-28.7,55.69c.6,1,.63,2.44,1.34,3.35a19.84,19.84,0,0,0,3.5,3.21c1.24,1,1.53,2.07.51,3.29a24.79,24.79,0,0,1-3.46,3.56,10.45,10.45,0,0,0-2.65,8.22h-.17a12.89,12.89,0,0,0,.38,3.67,24.07,24.07,0,0,0,2.77,4.78,13.64,13.64,0,0,0,2.63,2.57,18.29,18.29,0,0,0,2.58,1.66,10.48,10.48,0,0,0,2.59,1.2,3.68,3.68,0,0,0,4-.61q.45-2.82-2.68-3.29a13.48,13.48,0,0,1-2.77-1.27c-1.28-1.08-2.35-2.41-3.53-3.61a7.49,7.49,0,0,1-2-6.6,3.64,3.64,0,0,1,.52-1.42c.81-1.26,1.68-2.47,2.53-3.7a5.16,5.16,0,0,0,.93-1.38,2.86,2.86,0,0,1,2-1.89,29.75,29.75,0,0,1,4.42-1.1A2.12,2.12,0,0,0,320.7,465a5.05,5.05,0,0,0-3.19-1.57,13.27,13.27,0,0,1-6.73-6.1c-.74-1.26-1.71-2.4-1.68-4a9.72,9.72,0,0,1,3.49-7.22c.18-.23.47-.44.52-.69a7.23,7.23,0,0,1,6.51-3.36c1.39-.52,1.8-1.41,1.22-2.67-1-1.25-2.62-1.57-4-2.18a4.56,4.56,0,0,1-3.46-1.5c-.44-.88-.82-1.8-1.32-2.65a21.16,21.16,0,0,1-2.17-4.61c-.56-1.81-.39-4.06,1-5.32a18.93,18.93,0,0,0,2.25-2.71,4.93,4.93,0,0,1,2.89-3.15c1.25-.33,2.66.17,3.77-.94.8-.8,3.67-4.46-.3-5.06-1.5-.22-3.06-.05-4.33-1.1a5.22,5.22,0,0,1-.79-.77c-.49-.64-.81-1.52-1.44-1.91-2-1.23-2.7-3.28-3.52-5.18-.91-2.13.17-4.21,1.14-6.09a13.34,13.34,0,0,1,6.93-6.09,10.41,10.41,0,0,0,2.5-.94c.74-.48,1.52-1.25,1.11-2.26-1.19-2.94-5.74-1.9-7.78-4.4a25,25,0,0,1-1.48-2.3q-4.47-4.2-1.23-9.81c1-1.29,1.68-2.93,3.42-3.81a51.62,51.62,0,0,1,4.64-2.5,2.81,2.81,0,0,0,1.47-3.41c-1.25-2.75-10,2.25-10.76,3.9a9.35,9.35,0,0,1-2.45,3.54c-.52.93-1.37,1.82-1.47,2.79a26.67,26.67,0,0,0,0,6.68,10.77,10.77,0,0,0,2,4.21,24.61,24.61,0,0,0,3.19,3.43,3.41,3.41,0,0,1,.12,4.09,10.81,10.81,0,0,0-3.74,4.63,13.25,13.25,0,0,0-.85,12,14.75,14.75,0,0,0,1.44,2.83c.42.49,8.91,6.7,2.5,8.36a1.78,1.78,0,0,0-.83.52,7.34,7.34,0,0,0-2.12,3.95.72.72,0,0,1-.15.32c-2.61,3.59-1.38,9.42,1.11,12.69.89,1.16,1.69,2.41,2.67,3.49q1.57,4.28-3,6.91a8.53,8.53,0,0,0-2.4,5.45C305.08,452.81,304.73,455.29,306.05,457.57Zm-141.3-62.49A24.66,24.66,0,0,1,175,396.3a15.45,15.45,0,0,1,2.25,1.16l2.92,1.63a23.49,23.49,0,0,1,2.94,1.67,37.33,37.33,0,0,1,7.36,7.5c.51.7,1,1.43,1.45,2.17a31.21,31.21,0,0,1,3.24,7.2c1.13,3.74,2,8.4,1.28,12.19a37.32,37.32,0,0,1-3,10.81,45.75,45.75,0,0,0-2.36,4.88,4.06,4.06,0,0,1-.51.6,22.26,22.26,0,0,1-4.14,4.92c-.64.54-1.39,1-2,1.51-1.14,1-2.1,2.29-3.71,2.73a48,48,0,0,1-7.38,3c-.23,0-.58,0-.68.16-.61.91-1.55.62-2.38.75-1.59.27-3.16.68-4.76.85a3.78,3.78,0,0,0-2.91,1.16c-.46.58-.52,3.34,0,3.87a4,4,0,0,0,3.2,1.08,10.6,10.6,0,0,0,3.33-.84c1.51-.5,3.18,0,4.78-.91,1.08-.64,2.69-.14,4-1.08a54.37,54.37,0,0,0,5.33-2.42c.89-.62,7.25-5.2,7.83-6.28.94-1.73,2.59-2.72,3.6-4.31,1.17-1.85,2.5-3.6,3.61-5.48a19,19,0,0,0,1.16-3.2,1.89,1.89,0,0,1,.19-.3,12.72,12.72,0,0,0,2.6-7.94c.17-1.82,0-3.67,0-5.51h.29c-.1-2.07-.11-4.16-.33-6.22-.67-6.37-3.45-10.89-6.54-16.38l-4.84-5.28c-1.63-.43-4.75-4.19-6.35-5.24a15.37,15.37,0,0,0-7.47-3.66l-.45-.15a18.28,18.28,0,0,0-4-1.5,47.84,47.84,0,0,0-7.18-.35Q159.33,392.19,164.75,395.08ZM167.27,477c-1.36,0-2.9.42-4-.08-2.11-.93-4.44-.18-6.32-1-2-.88-4.38-.45-6.19-1.88l-.31-.28c-3.81-3.79-2.14-17.57,1.78-24.46.09-.18.2-.34.3-.51s.13-.2.19-.3a11,11,0,0,1,1.45-1.8,7.08,7.08,0,0,1,.69-.58,1.36,1.36,0,0,0,.36-.43c.73-1.19,1.37-2.44,2.2-3.56s2-2.32,3-3.45,1.91-2.77,3.2-3.27c3.41-1.31,5.91-4.7,9.24-6.22,4.36-2-.05-4.23-1.86-5.24a18,18,0,0,1-4.9-3.3,31.12,31.12,0,0,1-4.74-4c-.84-.85-1.63-1.77-2.41-2.69q-.66-.78-1.29-1.59c-.31-.38-.61-.78-.9-1.18s-.63-.86-.93-1.3-.78-1.15-1.15-1.73c-.56-.88-1.09-1.77-1.6-2.68,0,0,0,0,0,0a41,41,0,0,1-2.12-4.45c-.14-.37-.29-.74-.42-1.11-3-8.19-5.21-21.76,7.26-21.72a46.27,46.27,0,0,1,19.16,1.19,31.1,31.1,0,0,1,6.4,2.42l1.2.55c.79.39,1.58.8,2.36,1.22h0c.78.44,1.56.89,2.32,1.36h0a50.23,50.23,0,0,1,4.43,3.1c.36.28.72.57,1.06.86a38.55,38.55,0,0,1,3,2.74,32.9,32.9,0,0,1,2.61,3c1.21,1.55,2.46,3.07,3.69,4.6a1.86,1.86,0,0,1,.21.28c.35.74.65,1.52,1.06,2.23.53.9,1.14,1.76,1.72,2.64a16.19,16.19,0,0,1,1.7,3.61,41.45,41.45,0,0,1,1.66,11.31l0,.94a2,2,0,0,0,2.37,1.91,2.55,2.55,0,0,0,1.34-1c.77-1.19,2-1.94,2.43-3.54a10.08,10.08,0,0,1,3.06-4.47,19.93,19.93,0,0,0,1.77-2.34,13.91,13.91,0,0,0,1.85-2.2c1.47-2,3-3.87,4.59-5.74.47-1.41,1.9-1.67,2.66-2.7a28.63,28.63,0,0,1,4.93-5,48.05,48.05,0,0,0,5.15-5,18.73,18.73,0,0,1,2.75-2.36l5.87-4.58a13.23,13.23,0,0,1,2.68-1.77c4.14-1.71,7.58-5.37,11.75-7.27a18.22,18.22,0,0,0,1.88-1c1.35-.81,2.69-1.66,4.05-2.46a32.51,32.51,0,0,1,5.46-2.42c1.11-.47,2.21-1,3.31-1.49.17-.07.29-.28.47-.33,1.41-.41,2.85-.72,4.23-1.21,1.19-.42,2.3-1.05,3.45-1.57,2.38-.66,4.75-1.36,7.1-2.13.11,0,.23-.14.33-.13,2,.32,3.77-.67,5.58-1.19,2.1-.61,4.32-.66,6.33-1.29,2.82-.88,5.53-1.95,8.56-1.84.43,0,.88-.41,1.41-.67a2.85,2.85,0,0,0,3.65.21,2.17,2.17,0,0,1,1.12-.28q9.84,0,19.68,0a78.24,78.24,0,0,1,14.05,2,52,52,0,0,0,5.44,1,10.54,10.54,0,0,1,3.93,1.06c1.27.8,2.72.38,3.8,1,1.47.77,3,.54,4.43.94a40.93,40.93,0,0,0,7.06,2.82,105.71,105.71,0,0,1,14.43,6.4l2.84,1.6c3.16,1.81,6.21,3.46,9.25,5.49,1.74,1.16,3.48,2.3,5.17,3.52s3.23,2.48,4.84,3.73c.06,0,.11.15.17.15,1.33.09,1.87,1.25,2.72,2,3.59,3.15,6.7,6.46,10.05,9.81a35.22,35.22,0,0,1,5.86,6c.72.8,1.53,1.53,2.23,2.35s1.2,1.59,1.8,2.39c1.51,1.94,3,3.87,4.57,5.79.54.72.93,1.56,1.44,2.31.26.39.71.66.94,1.07.75,1.35,1.36,2.79,2.2,4.08a20.92,20.92,0,0,0,2.27,2.55c1,1.06.72,4.56-.14,5.71s-2.26,1.92-2.47,3.56c0,.33-.57.58-.8.92-.91,1.29-1.81,2.58-2.68,3.9-.46.7-.81,1.48-1.28,2.18-.29.42-.73.73-1.05,1.13-1.23,1.52-2.45,3-3.65,4.58-.82,1.06-1.56,2.18-2.41,3.21a25.68,25.68,0,0,0-2.54,2.81,16.65,16.65,0,0,1-4.89,4.93,3.65,3.65,0,0,0-.41.54,19,19,0,0,1-1.69,2.09c-1.43,1.39-2.89,2.76-4.43,4-1.8,1.5-3.71,2.87-5.54,4.33-.9.72-1.73,1.54-2.6,2.32-.14.13-.25.36-.41.39-1.63.25-2.36,1.7-3.53,2.56-.77.57-1.64,1-2.42,1.56a23.51,23.51,0,0,1-6.28,3.95c-.83.48-1.58,1.07-2.4,1.56s-1.74,1-2.62,1.43l-3.48,1.8a1.39,1.39,0,0,1-.45.14,11.39,11.39,0,0,0-5.44,2.76.53.53,0,0,1-.2.13c-1.43.43-2.89.81-4.31,1.3-1.06.37-2.09.86-3.12,1.32s-2.26,1.35-3.45,1.49a13.12,13.12,0,0,0-6.22,1.89,11.18,11.18,0,0,0-2.67,1,6,6,0,0,1-1,.21c-1.43.24-3-.4-4.28.89-.19.19-.69.07-1,.13-1,.15-2.1-.24-2.85.8-2.09.36-4.18.67-6.28.95-1.3.58-3,.28-4.51.34s-3.22-.24-4.65.2c-3,.92-6,.56-9,.63a120.52,120.52,0,0,1-15.09-.24c-2.45-.25-4.94-.51-7.41-.85a9.7,9.7,0,0,1-4-1c-1.58-1.08-3.21-.51-4.78-.83-.65-.14-1.26-.47-1.9-.67a10.55,10.55,0,0,0-1.27-.24c-1-.17-2.2.29-2.93-.84,0,0-.08,0-.11,0-1.55-.43-3.1-.83-4.63-1.3-1.77-.54-3.52-1.16-5.28-1.73a10.5,10.5,0,0,1-4.72-1.88.76.76,0,0,0-.2-.13c-1.2-.39-2.41-.72-3.59-1.15-1-.37-1.92-.85-2.88-1.29-1.24-.58-2.49-1.14-3.71-1.77-1.62-1-3.27-1.92-4.93-2.82s-3.19-2.35-5-2.86-2.45-2.29-4.29-2.34c-.42,0-.83-.61-1.24-.94-1.12-.91-2.22-1.85-3.37-2.73A22.24,22.24,0,0,1,246.4,469c-2.88-2.26-5.71-4.45-8.38-7-1.3-1.22-2.56-2.47-3.82-3.72-1-1-2.07-2-3-3.12-.71-.78-1.31-1.65-2-2.45-.21-.24-.53-.38-.75-.61q-1.64-1.68-3.24-3.41c-.35-.38-.64-.82-1-1.22-1.51-1.87-3-3.72-4.53-5.6a35,35,0,0,1-3.58-6.38q-2.15-5.62-5.8-1.83c0,2.08,0,4.16-.08,6.24a3.82,3.82,0,0,1-.56,1.31c-.05.11-.17.18-.2.29a33.45,33.45,0,0,1-1.39,4.46,29.69,29.69,0,0,1-3.93,8.79c0,.3-.56.59-.83.91-1,1.18-2.37,2.25-2.72,3.59-.63,2.45-5.5,5.73-7.34,7.23-.7.56-1.4,1.12-2.12,1.64-.53.39-1.11.69-1.65,1.06A25.52,25.52,0,0,1,187,471a31.83,31.83,0,0,1-3.09,1.19c-.86.35-1.7.74-2.54,1.12a19.65,19.65,0,0,0-1.87.83c-1.49.82-3.29.71-4.71,1.31a15.55,15.55,0,0,1-4.45.75A15.79,15.79,0,0,1,167.27,477Z" transform="translate(-148.12 -323.7)"/><path class="cls-1" d="M208.62,408a40.43,40.43,0,0,1,1.66,11.31A41.45,41.45,0,0,0,208.62,408Z" transform="translate(-148.12 -323.7)"/><path d="M164.75,395.08q-5.42-2.9.54-6a47.84,47.84,0,0,1,7.18.35,18.28,18.28,0,0,1,4,1.5l.45.15a15.37,15.37,0,0,1,7.47,3.66c1.6,1.05,4.72,4.81,6.35,5.24l4.84,5.28c3.09,5.49,5.87,10,6.54,16.38.22,2.06.23,4.15.33,6.22h-.29c0,1.84.14,3.69,0,5.51a12.72,12.72,0,0,1-2.6,7.94,1.89,1.89,0,0,0-.19.3,19,19,0,0,1-1.16,3.2c-1.11,1.88-2.44,3.63-3.61,5.48-1,1.59-2.66,2.58-3.6,4.31-.58,1.08-6.94,5.66-7.83,6.28a54.37,54.37,0,0,1-5.33,2.42c-1.26.94-2.87.44-4,1.08-1.6.94-3.27.41-4.78.91a10.6,10.6,0,0,1-3.33.84,4,4,0,0,1-3.2-1.08c-.49-.53-.43-3.29,0-3.87a3.78,3.78,0,0,1,2.91-1.16c1.6-.17,3.17-.58,4.76-.85.83-.13,1.77.16,2.38-.75.1-.14.45-.17.68-.16a48,48,0,0,0,7.38-3c1.61-.44,2.57-1.68,3.71-2.73.61-.56,1.36-1,2-1.51a22.26,22.26,0,0,0,4.14-4.92,4.06,4.06,0,0,0,.51-.6,45.75,45.75,0,0,1,2.36-4.88,37.32,37.32,0,0,0,3-10.81c.77-3.79-.15-8.45-1.28-12.19a31.21,31.21,0,0,0-3.24-7.2c-.45-.74-.94-1.47-1.45-2.17a37.33,37.33,0,0,0-7.36-7.5,23.49,23.49,0,0,0-2.94-1.67l-2.92-1.63A15.45,15.45,0,0,0,175,396.3,24.66,24.66,0,0,0,164.75,395.08Z" transform="translate(-148.12 -323.7)"/><path class="cls-1" d="M197.63,391.66a38.55,38.55,0,0,0-3-2.74A36.64,36.64,0,0,1,197.63,391.66Z" transform="translate(-148.12 -323.7)"/><path class="cls-1" d="M193.61,388.06a50.23,50.23,0,0,0-4.43-3.1A46.87,46.87,0,0,1,193.61,388.06Z" transform="translate(-148.12 -323.7)"/><path d="M190.43,408.26c.51.7,1,1.43,1.45,2.17C191.42,409.69,190.94,409,190.43,408.26Z" transform="translate(-148.12 -323.7)"/><path class="cls-1" d="M186.85,383.6c.78.43,1.56.88,2.32,1.36C188.41,384.49,187.63,384,186.85,383.6Z" transform="translate(-148.12 -323.7)"/><path class="cls-1" d="M184.48,382.38c.79.38,1.58.79,2.36,1.22C186.06,383.18,185.27,382.77,184.48,382.38Z" transform="translate(-148.12 -323.7)"/><path class="cls-1" d="M156.68,411.22c.29.4.59.8.9,1.18C157.27,412,157,411.62,156.68,411.22Z" transform="translate(-148.12 -323.7)"/><path class="cls-1" d="M154.13,446.72a7.08,7.08,0,0,1,.69-.58A7.08,7.08,0,0,0,154.13,446.72Z" transform="translate(-148.12 -323.7)"/><path class="cls-1" d="M152.68,448.52c-.06.1-.12.2-.19.3Z" transform="translate(-148.12 -323.7)"/><path class="cls-1" d="M152.19,449.33c-3.92,6.89-5.59,20.67-1.78,24.46C146.28,469.8,148.25,456.14,152.19,449.33Z" transform="translate(-148.12 -323.7)"/></svg>